<svg id="Слой_1" data-name="Слой 1" xmlns="http://www.w3.org/2000/svg" viewBox="0 0 595.28 595.28"><defs><style>.cls-1{fill:#e30516;}.cls-1,.cls-10,.cls-2,.cls-3,.cls-4,.cls-5,.cls-6,.cls-7{stroke:#1d1d1b;stroke-miterlimit:10;}.cls-1,.cls-10,.cls-2,.cls-3,.cls-4,.cls-5{stroke-width:0.25px;}.cls-10,.cls-2{fill:#352b60;}.cls-3{fill:#e30613;}.cls-4{fill:#4d4e9c;}.cls-5{fill:#e30614;}.cls-6{fill:none;stroke-width:2px;}.cls-7,.cls-9{font-size:62.54px;font-family:Cambria-Bold, Cambria;font-weight:700;}.cls-7{fill:#292066;stroke-width:0.1px;}.cls-8{letter-spacing:-0.01em;}.cls-9{fill:#e40425;}.cls-10{font-size:30.96px;font-family:Aqum;}</style></defs><title>Монтажная область 1</title><path class="cls-1" d="M517,168.33l37.67-64.22c-25.47,0-46,.49-71.49.26-24.81-.22-49.66-2-74.47-.9-22.18,1-45,4.41-65.58,15.13-22.08,11.52-41.62,30.55-52.22,57.33-13.64,34.48-10.72,74.78-2.65,110.65h81.81c-46.68-39.12-27.57-118.25,24.8-118.27C417.16,168.33,516.3,168.33,517,168.33Z"/><path class="cls-2" d="M347.53,104.11H41.16l-.55,252.51,513.95-.21V197.07H377.13l46.8,70.25,61.16-.11v28.54H105.44l.42-28.54H273.24c-3.84-22.17-5.59-47.87.83-69.83l-166.67-.51V168.33l174,4.59C294.11,142.33,319.15,119.91,347.53,104.11Z"/><path class="cls-3" d="M219.86,483.66c-.05,5.06,7.65,5.59,7.65,0v-21.8c0-3.77-.31-5.75,3.84-5.75,7.35.12,17,0,17,0a8.17,8.17,0,0,1,.24-7.27c-5.81-.06-21.05,0-21.05,0-4.69,0-7.52-.58-7.65,3.63C219.76,457.92,219.86,483.66,219.86,483.66Z"/><ellipse class="cls-4" cx="258.65" cy="452.67" rx="7.14" ry="7.07"/><path class="cls-5" d="M268.87,456.14a7.14,7.14,0,0,0-.25-7.31h8.48l17,0h17.58c13.9-.18,12.28,3.65,12.28,20,6.85-1.19,12.31-2.3,27.35-5.94v37l-29.8-10.73a9.77,9.77,0,0,1-3.26-1.66,3.27,3.27,0,0,1-1.17-3.26,3.36,3.36,0,0,1,3.06-2.09,9.91,9.91,0,0,1,3.85.8l19.51,6.87q.12-9.19.25-18.39c-7.23,1.28-13,2.54-18.15,3.55-3.25.77-8.92,1.48-8.58-6.12,0-2.31,0-2,0-5.36,0-6.89.42-7.5-13.76-7.5C288.9,456.05,283.23,456.1,268.87,456.14Z"/><path class="cls-6" d="M362.56,470.09l32.93-24.38Z"/><line class="cls-6" x1="362.53" y1="479.07" x2="392.43" y2="479.07"/><line class="cls-6" x1="362.69" y1="486.94" x2="396.92" y2="512.33"/><rect class="cls-2" x="462.75" y="377.66" width="91.46" height="56.31"/><text class="cls-7" transform="translate(40.61 428.54) scale(1.18 1)"><tspan class="cls-8">E</tspan><tspan x="35.51" y="0">GIZAKLAR.</tspan></text><text class="cls-9" transform="translate(462.75 428.54) scale(1.18 1)">UZ</text><text class="cls-10" transform="translate(232.45 488.84) scale(1.01 1)">LIVE</text></svg>